<svg xmlns="http://www.w3.org/2000/svg" version="1.1" xmlns:xlink="http://www.w3.org/1999/xlink" xmlns:svgjs="http://svgjs.dev/svgjs" width="750" height="515" viewBox="0 0 312 312" class="svg-animations " style="background: rgb(19, 14, 74);"><svg viewBox="0 0 129.91949462890625 134.99998474121094" width="75" height="75" x="118.5" y="78.15048408508301" style="fill: rgb(170, 164, 242);"><svg width="131" height="130" viewBox="0 0 131 130" xmlns="http://www.w3.org/2000/svg">
<path d="M111.069 18.9763C85.7676 -6.32544 44.4642 -6.32544 19.1625 18.9763C0.836041 37.3027 -4.77161 64.6562 4.528 88.7271C4.8018 89.5475 5.48582 90.0951 6.30625 90.2315C7.1267 90.368 7.94715 90.0951 8.63115 89.5475L58.8243 39.3543C59.2346 38.9441 59.5084 38.2601 59.5084 37.5761V33.8831C61.5595 33.4729 63.3378 32.3787 64.9785 30.8743C69.3555 26.4973 69.3555 19.3862 64.9785 15.0092C60.6015 10.6322 53.4904 10.6322 49.1134 15.0092C44.7364 19.3862 44.7364 26.4973 49.1134 30.8743C50.6179 32.3788 52.5326 33.4731 54.5836 33.8831V36.6182L7.94629 83.2555C1.10799 61.9202 6.71562 38.5329 22.717 22.5313C46.1045 -0.856206 84.125 -0.856206 107.649 22.5313C131.036 45.9188 131.036 83.9393 107.649 107.463C91.6472 123.465 68.2602 129.072 46.9246 122.234L66.0714 103.087H75.6448C76.055 105.138 77.1493 106.917 78.6537 108.557C83.0307 112.934 90.1418 112.934 94.5188 108.557C98.8958 104.18 98.8958 97.0691 94.5188 92.6921C90.1418 88.3151 83.0307 88.3151 78.6537 92.6921C77.1492 94.1966 76.0549 96.1113 75.6448 98.1623H65.1136C64.4295 98.1623 63.8829 98.4361 63.3353 98.8463L40.4973 121.412C39.9507 121.959 39.6769 122.917 39.8133 123.737C39.9497 124.284 40.0871 124.695 40.4973 124.968C40.7711 125.242 41.044 125.378 41.3178 125.514C65.3884 134.952 92.7418 129.207 110.932 111.017C136.37 85.579 136.37 44.2756 111.069 18.9738L111.069 18.9763ZM52.6702 27.319C50.2089 24.8577 50.2089 20.891 52.6702 18.4297C55.1315 15.9684 59.0982 15.9684 61.5595 18.4297C64.0208 20.891 64.0208 24.8577 61.5595 27.319C59.0982 29.7803 55.1325 29.7803 52.6702 27.319ZM81.9381 96.1124C84.3994 93.6511 88.3661 93.6511 90.8274 96.1124C93.2887 98.5737 93.2887 102.54 90.8274 105.002C88.3661 107.463 84.3994 107.463 81.9381 105.002C79.6132 102.54 79.6132 98.5737 81.9381 96.1124Z"></path>
<path d="M92.4691 40.7219C96.8461 36.3449 96.8461 29.2338 92.4691 24.8568C88.0921 20.4798 80.981 20.4798 76.604 24.8568C72.7746 28.6862 72.3645 34.4301 75.0995 38.8072L14.5121 99.3946C13.5543 100.352 13.5543 101.993 14.5121 102.95C15.4699 103.908 17.1109 103.908 18.0678 102.95L78.6552 42.3628C82.8957 45.0979 88.7762 44.5513 92.4691 40.7219ZM80.1607 28.4134C82.622 25.9521 86.5887 25.9521 89.05 28.4134C91.5113 30.8747 91.5113 34.8414 89.05 37.3027C86.5887 39.764 82.622 39.764 80.1607 37.3027C77.6984 34.8405 77.6984 30.8747 80.1607 28.4134Z"></path>
<path d="M78.9293 71.9046C79.3395 73.9557 80.4338 75.734 81.9381 77.3747C86.3151 81.7517 93.4262 81.7517 97.8033 77.3747C102.18 72.9977 102.18 65.8866 97.8033 61.5096C93.4262 57.1326 86.3151 57.1326 81.9381 61.5096C80.4337 63.0141 79.3393 64.9288 78.9293 66.9798L73.3226 66.9807C72.6386 66.9807 72.0919 67.2545 71.5443 67.6647L27.2321 112.114C26.2743 113.072 26.2743 114.713 27.2321 115.669C28.1899 116.627 29.8309 116.627 30.7878 115.669L74.4162 72.041H78.9295L78.9293 71.9046ZM85.4948 65.0663C87.9561 62.605 91.9228 62.605 94.3841 65.0663C96.8454 67.5276 96.8454 71.4943 94.3841 73.9556C91.9228 76.4169 87.9561 76.4169 85.4948 73.9556C83.0325 71.4943 83.0325 67.5276 85.4948 65.0663Z"></path>
</svg></svg><text fill="#8b81ff" font-family="Righteous" font-size="38px" x="111.4038200378418" y="190.50970649719238"><tspan dy="0" x="111.4038200378418">Devs</tspan></text><text fill="#aaa4f2" font-family="Open Sans" font-size="19px" x="49.7754842939886" y="228.29611585672615"><tspan dy="0" x="49.7754842939886">Viaje na sua criatividade</tspan></text></svg>